{"title":"Assassins.Tale.2013.BRRip.x264-MenaceIISociety","uid":12266271,"size":709586631,"categoryP":"video","categoryS":"movies","magnet":"?xt=urn:btih:f6814c2a72143a931f773c8aaec92cf4db08666d&amp;dn=Assassins.Tale.2013.BRRip.x264-MenaceIISociety&amp;tr=udp%3A%2F%2Ftracker.openbittorrent.com%3A80&amp;tr=udp%3A%2F%2Fopen.demonii.com%3A1337&amp;tr=udp%3A%2F%2Ftracker.coppersurfer.tk%3A6969&amp;tr=udp%3A%2F%2Fexodus.desync.com%3A6969","seeders":1,"leechers":0,"uploader":"xxxlavalxxx","files":4,"time":1440240944,"description":" &lt;a href=&quot;http://extraimago.com/image/Lic&quot; rel=&quot;nofollow&quot; target=&quot;_NEW&quot;&gt;http://extraimago.com/image/Lic&lt;/a&gt;\n &lt;a href=&quot;\nhttp://www.imdb.com/title/tt2663744/&quot; rel=&quot;nofollow&quot; target=&quot;_NEW&quot;&gt;\nhttp://www.imdb.com/title/tt2663744/&lt;/a&gt;\n\n\nThree assassins deal with life, love, addiction and trust as each tries to find the answers to a better life. Together, they prove to be the most trustworthy in this tangled web of murder, greed, friendship and betrayal.\n\nDirector: Arthur Louis Fuller\nWriters: Arthur Louis Fuller, Guy Garner\nStars: Michael Beach, Anna Silk, Guy Garner \nGenres: Action | Crime | Thriller\nCountry: USA\nLanguage: English\n\n\nAssassins.Tale.2013.BRRip.x264-MenaceIISociety\n &lt;a href=&quot;\nhttp://www.imdb.com/title/tt2663744/&quot; rel=&quot;nofollow&quot; target=&quot;_NEW&quot;&gt;\nhttp://www.imdb.com/title/tt2663744/&lt;/a&gt;\nSource: DL.1080p.BluRay.x264-MOViEiT [THANKS]\n\nGeneral\nComplete name: Assassins.Tale.2013.BRRip.x264-MenaceIISociety.mp4\nFormat: MPEG-4\nFormat profile: Base Media\nCodec ID: isom\nFile size: 656 MiB\nDuration: 1h 32mn\nOverall bit rate mode: Variable\nOverall bit rate: 992 Kbps\nEncoded date: UTC 2015-08-21 22:24:44\nTagged date: UTC 2015-08-21 22:24:44\n\nVideo\nID: 1\nFormat: AVC\nFormat/Info: Advanced Video Codec\nFormat profile: &lt;a class=&quot;__cf_email__&quot; href=&quot;/cdn-cgi/l/email-protection&quot; data-cfemail=&quot;1c54757b745c5028322d&quot;&gt;[email&amp;#160;protected]&lt;/a&gt;&lt;script data-cfhash='f9e31' type=&quot;text/javascript&quot;&gt;\n/* &lt;![CDATA[ */!function(){try{var t=&quot;currentScript&quot;in document?document.currentScript:function(){for(var t=document.getElementsByTagName(&quot;script&quot;),e=t.length;e--;)if(t[e].getAttribute(&quot;data-cfhash&quot;))return t[e]}();if(t&amp;&amp;t.previousSibling){var e,r,n,i,c=t.previousSibling,a=c.getAttribute(&quot;data-cfemail&quot;);if(a){for(e=&quot;&quot;,r=parseInt(a.substr(0,2),16),n=2;a.length-n;n+=2)i=parseInt(a.substr(n,2),16)^r,e+=String.fromCharCode(i);e=document.createTextNode(e),c.parentNode.replaceChild(e,c)}t.parentNode.removeChild(t);}}catch(u){}}()/* ]]&gt; */&lt;/script&gt;\nFormat settings, CABAC: Yes\nFormat settings, ReFrames: 3 frames\nCodec ID: avc1\nCodec ID/Info: Advanced Video Coding\nDuration: 1h 32mn\nBit rate mode: Variable\nBit rate: 868 Kbps\nMaximum bit rate: 40.0 Mbps\nWidth: 720 pixels\nHeight: 400 pixels\nDisplay aspect ratio: 16:9\nFrame rate mode: Constant\nFrame rate: 23.976 fps\nColor space: YUV\nChroma subsampling: 4:2:0\nBit depth: 8 bits\nScan type: Progressive\nBits/(Pixel*Frame): 0.126\nStream size: 574 MiB (87%)\nWriting library: x264 core 148 r2579 73ae2d1\n\nAudio\nID: 2\nFormat: AAC\nFormat/Info: Advanced Audio Codec\nFormat profile: LC\nCodec ID: 40\nDuration: 1h 32mn\nBit rate mode: Variable\nBit rate: 120 Kbps\nMaximum bit rate: 156 Kbps\nChannel(s): 2 channels\nChannel positions: Front: L R\nSampling rate: 48.0 KHz\nCompression mode: Lossy\nStream size: 79.4 MiB (12%)\nLanguage: English\nEncoded date: UTC 2015-08-21 20:59:03\nTagged date: UTC 2015-08-21 22:26:56 \n\n &lt;a href=&quot;\nhttp://extraimago.com/image/LiS&quot; rel=&quot;nofollow&quot; target=&quot;_NEW&quot;&gt;\nhttp://extraimago.com/image/LiS&lt;/a&gt; &lt;a href=&quot;\nhttp://extraimago.com/image/Liq&quot; rel=&quot;nofollow&quot; target=&quot;_NEW&quot;&gt;\nhttp://extraimago.com/image/Liq&lt;/a&gt; &lt;a href=&quot;\nhttp://extraimago.com/image/Liy&quot; rel=&quot;nofollow&quot; target=&quot;_NEW&quot;&gt;\nhttp://extraimago.com/image/Liy&lt;/a&gt; &lt;a href=&quot;\nhttp://extraimago.com/image/LiL&quot; rel=&quot;nofollow&quot; target=&quot;_NEW&quot;&gt;\nhttp://extraimago.com/image/LiL&lt;/a&gt; &lt;a href=&quot;\nhttp://extraimago.com/image/LiQ&quot; rel=&quot;nofollow&quot; target=&quot;_NEW&quot;&gt;\nhttp://extraimago.com/image/LiQ&lt;/a&gt;","torrent":{"xt":"urn:btih:f6814c2a72143a931f773c8aaec92cf4db08666d","amp;dn":"Assassins.Tale.2013.BRRip.x264-MenaceIISociety","amp;tr":["udp%3A%2F%2Ftracker.openbittorrent.com%3A80","udp%3A%2F%2Fopen.demonii.com%3A1337","udp%3A%2F%2Ftracker.coppersurfer.tk%3A6969","udp%3A%2F%2Fexodus.desync.com%3A6969"],"infoHash":"f6814c2a72143a931f773c8aaec92cf4db08666d","infoHashBuffer":{"type":"Buffer","data":[246,129,76,42,114,20,58,147,31,119,60,138,174,201,44,244,219,8,102,109]},"announce":[],"urlList":[]}}